<?xml version="1.0" encoding="utf-8"?>
<!-- Generator: Adobe Illustrator 16.0.0, SVG Export Plug-In . SVG Version: 6.00 Build 0)  -->
<!DOCTYPE svg PUBLIC "-//W3C//DTD SVG 1.1//EN" "http://www.w3.org/Graphics/SVG/1.1/DTD/svg11.dtd">
<svg version="1.1" id="Layer_1" xmlns="http://www.w3.org/2000/svg" xmlns:xlink="http://www.w3.org/1999/xlink" x="0px" y="0px"
	 width="612px" height="165.75px" viewBox="0 0 612 165.75" enable-background="new 0 0 612 165.75" xml:space="preserve">
<g>
	<path fill="#FFFFFF" d="M0,7.192h22.558c9.154,0,16.019,0.981,20.923,3.27c4.904,2.288,8.827,5.558,11.442,9.808
		c2.942,4.577,4.25,9.48,4.25,15.038c0,5.231-1.308,9.809-3.596,14.058c-2.615,4.25-6.211,7.52-10.788,10.135
		c5.884,1.962,10.461,4.25,13.73,7.192c3.27,2.615,5.558,5.885,7.52,9.808c1.634,3.924,2.615,8.174,2.615,12.75
		c0,9.154-3.269,17-10.135,23.212c-6.865,6.212-15.692,9.48-27.134,9.48H0V7.192L0,7.192z M11.115,18.308v36.616h6.539
		c7.846,0,13.731-0.654,17.654-2.289c3.923-1.635,6.865-3.923,8.827-6.865c2.288-3.27,3.269-6.865,3.269-10.788
		c0-5.231-1.961-9.481-5.558-12.424c-3.596-2.941-9.481-4.576-17.654-4.576C24.519,18.308,11.115,18.308,11.115,18.308z
		 M11.115,66.692v44.135h14.058c8.5,0,14.385-0.98,18.308-2.615c3.923-1.635,7.192-4.25,9.48-7.52
		c2.289-3.596,3.596-7.192,3.596-11.442c0-5.23-1.635-9.48-4.904-13.403S43.808,69.308,37.923,68
		c-3.923-0.98-10.789-1.308-20.27-1.308H11.115L11.115,66.692z"/>
	<path fill="#FFFFFF" d="M80.096,4.25h10.789v117.692H80.096V4.25z"/>
	<path fill="#FFFFFF" d="M104.289,36.942h10.789V76.5c0,9.808,0.654,16.347,1.634,19.942c1.635,5.231,4.577,9.154,8.827,12.424
		c4.25,2.941,9.48,4.576,15.692,4.576c6.211,0,11.115-1.308,15.365-4.25s7.192-6.865,8.827-11.442
		c0.981-3.269,1.635-10.134,1.635-20.923V37.27h11.115v41.52c0,11.77-1.308,20.596-4.25,26.48
		c-2.615,5.885-6.865,10.462-12.423,14.058c-5.558,3.597-12.423,4.904-20.596,4.904c-8.173,0-15.039-1.635-20.596-4.904
		s-9.808-8.173-12.423-14.058c-2.616-5.885-4.25-15.038-4.25-27.135V36.942H104.289z"/>
	<path fill="#FFFFFF" d="M266.115,93.827l9.154,4.904c-2.942,5.884-6.538,10.788-10.461,14.384c-3.923,3.597-8.5,6.539-13.404,8.174
		c-4.904,1.961-10.461,2.942-16.673,2.942c-13.731,0-24.52-4.577-32.366-13.731c-7.846-9.153-11.769-19.288-11.769-30.73
		c0-10.788,3.269-20.27,9.808-28.77c8.5-10.788,19.615-16.019,33.673-16.019c14.384,0,26.154,5.558,34.654,16.346
		c6.211,7.847,9.154,17.327,9.48,29.097h-76.5c0.327,9.808,3.27,17.98,9.481,24.191c6.211,6.212,13.731,9.481,22.558,9.481
		c4.25,0,8.5-0.654,12.75-2.289s7.519-3.596,10.461-5.884C259.577,103.308,262.846,99.385,266.115,93.827z M266.115,70.942
		c-1.308-5.885-3.596-10.461-6.211-14.058c-2.942-3.596-6.539-6.211-11.115-8.5c-4.577-2.288-9.481-3.269-14.385-3.269
		c-8.173,0-15.365,2.615-21.577,8.173c-4.25,3.923-7.52,9.808-9.808,17.653H266.115L266.115,70.942z"/>
	<path fill="#FFFFFF" d="M291.289,121.942V4.25h10.789v47.404c4.577-5.558,9.808-9.808,15.365-12.75
		c5.558-2.615,11.77-4.25,18.635-4.25c12.096,0,22.23,4.25,30.73,13.077s12.75,19.288,12.75,31.711
		c0,12.424-4.25,22.885-12.75,31.385s-18.961,13.077-31.058,13.077c-6.865,0-13.077-1.635-18.635-4.577s-10.461-7.519-15.038-13.403
		v15.692h-10.789V121.942z M334.769,113.442c6.213,0,11.77-1.635,16.674-4.576c5.23-2.942,9.154-7.192,12.096-12.75
		c2.943-5.559,4.577-11.116,4.577-17.001c0-5.884-1.634-11.769-4.577-17.326c-2.941-5.558-7.191-9.808-12.423-12.75
		c-5.23-2.942-10.788-4.577-16.673-4.577s-11.77,1.635-17,4.577c-5.231,2.942-9.481,7.192-12.423,12.423s-4.25,10.788-4.25,17.327
		c0,9.808,3.27,17.98,9.808,24.519C317.442,110.174,325.288,113.442,334.769,113.442z"/>
	<path fill="#FFFFFF" d="M537.135,36.942h13.077L572.77,68L595,36.942h13.077l-28.77,40.212L612,121.942h-13.404L572.77,86.308
		l-25.827,35.635h-13.077l32.039-44.788L537.135,36.942z"/>
</g>
<polygon fill="#C5E5ED" points="385.115,73.885 473.058,38.577 523.077,126.847 438.731,143.52 "/>
<polygon fill="#A3D7E2" points="493.327,0 474.038,37.597 523.077,126.847 525.365,67.674 "/>
<g>
	<g>
		<polygon id="SVGID_1_" fill="#FFFFFF" points="493.327,0 473.058,37.27 385.442,73.885 429.25,30.404 		"/>
	</g>
</g>
<g>
	<path fill="#FFFFFF" d="M537.135,143.847h-2.942c0.653-2.289,1.635-3.924,2.942-5.231s3.27-1.961,5.23-1.961
		c1.308,0,2.942,0.327,3.923,0.98c1.308,0.654,2.289,1.635,2.942,2.615c0.654,0.98,0.981,2.289,0.981,3.597
		c0,2.288-1.308,4.25-3.597,5.558c1.308,0.653,2.289,1.308,3.27,2.288c1.308,1.308,1.961,3.27,1.961,4.904s-0.326,2.942-1.308,4.576
		c-0.98,1.309-1.961,2.616-3.269,3.27c-1.308,0.654-2.942,1.308-4.904,1.308c-2.288,0-4.25-0.653-5.885-1.961
		s-2.615-3.27-3.269-6.212h2.615c0.327,1.635,1.308,2.942,1.961,3.923c0.981,0.981,2.616,1.635,4.25,1.635
		c1.962,0,3.597-0.653,4.904-1.962c1.308-1.308,1.962-2.615,1.962-4.249c0-0.981-0.327-1.962-0.981-2.942
		c-0.653-0.981-1.308-1.635-2.615-2.289c-0.98-0.327-2.615-0.653-4.903-0.98v-2.615c1.308,0,2.288-0.327,3.596-0.654
		c0.98-0.327,1.962-0.98,2.288-1.635c0.327-0.653,0.654-1.308,0.654-2.288c0-1.308-0.327-2.288-1.308-3.27
		c-0.98-0.98-2.289-1.308-3.597-1.308s-2.288,0.327-2.942,0.98C538.442,140.577,537.462,142.212,537.135,143.847z"/>
	<path fill="#FFFFFF" d="M571.135,143.847h-2.942c0.653-2.289,1.635-3.924,2.942-5.231s3.27-1.961,5.23-1.961
		c1.308,0,2.942,0.327,3.923,0.98c1.308,0.654,2.289,1.635,2.942,2.615c0.654,0.98,0.981,2.289,0.981,3.597
		c0,2.288-1.308,4.25-3.597,5.558c1.308,0.653,2.289,1.308,3.27,2.288c1.308,1.308,1.961,3.27,1.961,4.904s-0.326,2.942-1.308,4.576
		c-0.98,1.309-1.961,2.616-3.269,3.27c-1.308,0.654-2.942,1.308-4.904,1.308c-2.288,0-4.25-0.653-5.885-1.961
		s-2.615-3.27-3.269-6.212h2.615c0.327,1.635,1.308,2.942,1.961,3.923c0.981,0.981,2.616,1.635,4.25,1.635
		c1.962,0,3.597-0.653,4.904-1.962c1.308-1.308,1.962-2.615,1.962-4.249c0-0.981-0.327-1.962-0.981-2.942
		c-0.653-0.981-1.308-1.635-2.615-2.289c-0.98-0.327-2.615-0.653-4.903-0.98v-2.615c1.308,0,2.288-0.327,3.596-0.654
		c0.98-0.327,1.962-0.98,2.288-1.635c0.327-0.653,0.654-1.308,0.654-2.288c0-1.308-0.327-2.288-1.308-3.27
		c-0.98-0.98-2.289-1.308-3.597-1.308s-2.288,0.327-2.942,0.98C572.442,140.577,571.462,142.212,571.135,143.847z"/>
	<path fill="#FFFFFF" d="M559.038,160.847c0.654,0,1.308,0.327,1.635,0.653c0.327,0.327,0.654,0.981,0.654,1.635
		c0,0.654-0.327,1.308-0.654,1.635s-0.98,0.654-1.635,0.654c-0.653,0-1.308-0.327-1.634-0.654c-0.327-0.327-0.654-0.98-0.654-1.635
		c0-0.653,0.327-1.308,0.654-1.635C558.058,161.174,558.385,160.847,559.038,160.847z"/>
</g>
</svg>
